HIERARCHY
ROOT Hips
{
	OFFSET 0.000000 0.000000 0.000000
	CHANNELS 6 Xposition Yposition Zposition Xrotation Yrotation Zrotation
	JOINT LeftUpLeg_virtual
	{
		OFFSET 0.000000 0.000000 0.000000
		CHANNELS 3 Xrotation Yrotation Zrotation
		JOINT LeftUpLeg
		{
			OFFSET 15.427100 -6.655098 0.678600
			CHANNELS 3 Xrotation Yrotation Zrotation
			JOINT LeftLeg
			{
				OFFSET 4.081073 -39.591068 13.024000
				CHANNELS 3 Xrotation Yrotation Zrotation
				JOINT LeftFoot
				{
					OFFSET -4.081074 -37.707932 -15.979700
					CHANNELS 3 Xrotation Yrotation Zrotation
					JOINT LeftToeBase
					{
						OFFSET 5.346399 -15.068900 20.645000
						CHANNELS 3 Xrotation Yrotation Zrotation
						JOINT LeftToe_End
						{
							OFFSET 2.754700 0.931300 11.300900
							CHANNELS 3 Xrotation Yrotation Zrotation
							End Site
							{
								OFFSET 0 0 0
							}
						}
					}
				}
			}
		}
	}
	JOINT RightUpLeg_virtual
	{
		OFFSET 0.000000 0.000000 0.000000
		CHANNELS 3 Xrotation Yrotation Zrotation
		JOINT RightUpLeg
		{
			OFFSET -15.569500 -6.655098 0.678600
			CHANNELS 3 Xrotation Yrotation Zrotation
			JOINT RightLeg
			{
				OFFSET -4.081825 -39.591045 13.023800
				CHANNELS 3 Xrotation Yrotation Zrotation
				JOINT RightFoot
				{
					OFFSET 4.081824 -37.707954 -15.979600
					CHANNELS 3 Xrotation Yrotation Zrotation
					JOINT RightToeBase
					{
						OFFSET -5.346400 -15.068900 20.645000
						CHANNELS 3 Xrotation Yrotation Zrotation
						JOINT RightToe_End
						{
							OFFSET -2.754700 0.931300 11.300900
							CHANNELS 3 Xrotation Yrotation Zrotation
							End Site
							{
								OFFSET 0 0 0
							}
						}
					}
				}
			}
		}
	}
	JOINT Spine_virtual
	{
		OFFSET 0.000000 0.000000 0.000000
		CHANNELS 3 Xrotation Yrotation Zrotation
		JOINT Spine
		{
			OFFSET -0.279200 12.230698 -2.892100
			CHANNELS 3 Xrotation Yrotation Zrotation
			JOINT Spine1
			{
				OFFSET -0.232667 10.192268 -1.242267
				CHANNELS 3 Xrotation Yrotation Zrotation
				JOINT Spine1_split
				{
					OFFSET -0.232667 10.192268 -1.242267
					CHANNELS 3 Xrotation Yrotation Zrotation
					JOINT Spine2
					{
						OFFSET -0.232667 10.192268 -1.242267
						CHANNELS 3 Xrotation Yrotation Zrotation
						JOINT Neck_virtual
						{
							OFFSET 0.000000 0.000000 0.000000
							CHANNELS 3 Xrotation Yrotation Zrotation
							JOINT Neck
							{
								OFFSET -0.418800 17.814194 8.416900
								CHANNELS 3 Xrotation Yrotation Zrotation
								JOINT Head
								{
									OFFSET 0.000000 7.031097 3.806800
									CHANNELS 3 Xrotation Yrotation Zrotation
									JOINT HeadTop_End
									{
										OFFSET 0.000000 24.646606 12.978600
										CHANNELS 3 Xrotation Yrotation Zrotation
										End Site
										{
											OFFSET 0 0 0
										}
									}
								}
							}
						}
						JOINT LeftShoulder_virtual
						{
							OFFSET 0.000000 0.000000 0.000000
							CHANNELS 3 Xrotation Yrotation Zrotation
							JOINT LeftShoulder
							{
								OFFSET 8.476499 7.247704 -3.868750
								CHANNELS 3 Xrotation Yrotation Zrotation
								JOINT LeftShoulder_split
								{
									OFFSET 8.476499 7.247704 -3.868750
									CHANNELS 3 Xrotation Yrotation Zrotation
									JOINT LeftArm
									{
										OFFSET 9.308998 -2.777710 0.208600
										CHANNELS 3 Xrotation Yrotation Zrotation
										JOINT LeftForeArm
										{
											OFFSET 29.972298 0.000000 0.000000
											CHANNELS 3 Xrotation Yrotation Zrotation
											JOINT LeftHand
											{
												OFFSET 26.026505 0.000000 0.000000
												CHANNELS 3 Xrotation Yrotation Zrotation
												End Site
												{
													OFFSET 0 0 0
												}
											}
										}
									}
								}
							}
						}
						JOINT RightShoulder_virtual
						{
							OFFSET 0.000000 0.000000 0.000000
							CHANNELS 3 Xrotation Yrotation Zrotation
							JOINT RightShoulder
							{
								OFFSET -7.570500 7.247704 -3.868750
								CHANNELS 3 Xrotation Yrotation Zrotation
								JOINT RightShoulder_split
								{
									OFFSET -7.570500 7.247704 -3.868750
									CHANNELS 3 Xrotation Yrotation Zrotation
									JOINT RightArm
									{
										OFFSET -9.308998 -2.777710 0.208500
										CHANNELS 3 Xrotation Yrotation Zrotation
										JOINT RightForeArm
										{
											OFFSET -29.972300 0.000000 0.000000
											CHANNELS 3 Xrotation Yrotation Zrotation
											JOINT RightHand
											{
												OFFSET -26.026505 0.000000 0.000000
												CHANNELS 3 Xrotation Yrotation Zrotation
												End Site
												{
													OFFSET 0 0 0
												}
											}
										}
									}
								}
							}
						}
					}
				}
			}
		}
	}
}
MOTION
Frames: 6
Frame Time: 0.03333333
0.208656 86.097397 -2.047085 0.000000 0.000000 0.000000 7.310525 -17.550297 1.607681 -39.479644 4.373378 12.895807 33.745403 5.046725 1.686249 -1.376343 -0.984944 -8.208947 1.561335 -1.705214 -0.882782 0.000000 0.000000 0.000000 7.958096 -18.304984 2.065549 -10.024591 -9.421717 -15.485234 27.185582 -1.236426 1.558520 -20.429316 -8.633481 14.973293 0.922154 1.542790 0.906993 0.000000 0.000000 0.000000 7.604591 -14.433901 1.645222 25.090017 4.928174 -1.094877 2.529932 2.072413 -1.662651 0.500769 1.458228 0.406047 0.000000 0.000000 0.000000 3.627179 1.666096 -0.953038 -14.292529 1.925240 1.708396 -11.333645 10.351743 -2.183602 0.000000 0.000000 0.000000 3.470048 2.000865 -1.115247 6.923346 -21.175209 8.718713 -0.780283 -0.803925 0.935380 -31.449145 -10.667620 -84.759540 -0.325285 -44.688907 -2.990536 0.000000 0.000000 0.000000 3.873671 1.929880 -0.858552 12.144013 25.664670 -20.372877 -4.967761 1.746280 -1.120951 -43.123137 1.044874 85.867581 -0.552207 61.023314 7.577971 0.000000 0.000000 0.000000 
0.214312 86.117310 -2.099411 0.000000 0.000000 0.000000 7.307693 -17.804753 1.642371 -39.362117 4.282601 12.949725 33.908959 5.226060 1.607432 -1.608340 -0.897980 -8.345065 1.671194 -1.710511 -0.896742 0.000000 0.000000 0.000000 7.971578 -18.430335 2.104388 -10.214531 -9.578081 -15.508651 27.121909 -1.202464 1.525034 -20.363166 -8.509723 14.760706 1.068302 1.513135 0.958468 0.000000 0.000000 0.000000 7.580808 -14.726421 1.608228 25.094895 4.887166 -1.025170 2.519830 2.070464 -1.596641 0.481416 1.370892 0.391361 0.000000 0.000000 0.000000 3.652677 1.707186 -0.932382 -14.197762 2.171630 1.600705 -11.428564 10.810940 -2.642797 0.000000 0.000000 0.000000 3.378369 2.015708 -1.084043 6.901092 -20.895584 8.478129 -0.587771 -1.489033 1.060502 -31.960234 -10.829360 -84.545161 -0.709612 -44.890681 -3.257116 0.000000 0.000000 0.000000 3.849808 1.949100 -0.783291 12.031920 25.638032 -20.145535 -5.102554 1.462854 -1.010463 -43.007335 0.269648 86.027763 -1.282761 61.417116 8.171235 0.000000 0.000000 0.000000 
0.226678 86.118401 -2.181400 0.000000 0.000000 0.000000 7.233449 -18.515741 1.681642 -39.081796 4.207886 13.183799 34.166218 5.598033 1.486008 -2.050379 -0.627458 -8.567521 1.799420 -1.699015 -0.951910 0.000000 0.000000 0.000000 7.897864 -19.030908 2.143247 -10.715187 -9.659919 -15.617786 27.253175 -0.948933 1.462082 -20.353315 -8.213743 14.543554 1.039581 1.514326 0.931492 0.000000 0.000000 0.000000 7.484473 -15.479522 1.594037 25.057474 4.857297 -0.864090 2.511947 2.083752 -1.538483 0.461354 1.258671 0.391758 0.000000 0.000000 0.000000 3.700348 1.747599 -0.913967 -14.111249 2.872750 1.253794 -11.581581 11.869392 -3.413587 0.000000 0.000000 0.000000 3.302829 2.063236 -1.044517 6.781443 -20.624506 7.800506 -0.375808 -2.108650 0.976395 -32.145305 -11.687241 -83.352610 -0.657319 -45.300058 -3.186075 0.000000 0.000000 0.000000 3.858437 1.964026 -0.742180 11.709083 25.460367 -19.651409 -5.254547 1.316240 -0.884972 -43.351941 0.907034 85.693247 -1.867823 61.166297 8.517438 0.000000 0.000000 0.000000 
0.262792 86.106949 -2.303436 0.000000 0.000000 0.000000 7.078386 -19.535634 1.728607 -38.675786 4.198046 13.539523 34.422996 6.136177 1.319867 -2.601355 -0.235798 -8.839055 1.906157 -1.672445 -1.028325 0.000000 0.000000 0.000000 7.755958 -20.016336 2.200567 -11.490315 -9.689244 -15.819063 27.622677 -0.479163 1.381985 -20.360524 -7.770354 14.343174 0.903090 1.536675 0.844475 0.000000 0.000000 0.000000 7.301295 -16.613320 1.614934 24.998369 4.832991 -0.648233 2.525224 2.107406 -1.489516 0.406602 1.098006 0.471624 0.000000 0.000000 0.000000 3.743688 1.783846 -0.884670 -14.045535 3.904639 0.704650 -11.719490 13.299825 -4.329820 0.000000 0.000000 0.000000 3.271305 2.123192 -1.010828 6.583459 -20.364812 6.735013 -0.189382 -2.495259 0.737999 -31.939146 -13.160234 -81.355421 -0.301142 -45.704160 -2.925754 0.000000 0.000000 0.000000 3.900586 1.981633 -0.731768 11.232080 25.177670 -18.973422 -5.400447 1.309348 -0.682523 -44.119242 2.942263 84.997217 -2.273819 60.364044 8.631818 0.000000 0.000000 0.000000 
0.324355 86.087875 -2.449730 0.000000 0.000000 0.000000 6.880101 -20.732117 1.795172 -38.154728 4.273596 13.966027 34.619579 6.794166 1.119626 -3.160786 0.191259 -9.139354 1.991066 -1.637861 -1.102190 0.000000 0.000000 0.000000 7.565838 -21.262755 2.292019 -12.464741 -9.695612 -16.091147 28.188988 0.156371 1.274737 -20.372240 -7.249658 14.109721 0.771199 1.566320 0.721652 0.000000 0.000000 0.000000 7.059538 -18.000924 1.665612 24.946846 4.799156 -0.426310 2.570386 2.134416 -1.448182 0.508370 0.929392 0.545162 0.000000 0.000000 0.000000 3.766301 1.813321 -0.845072 -14.029927 5.123178 -0.004197 -11.823457 14.689046 -5.170832 0.000000 0.000000 0.000000 3.270670 2.181051 -0.991481 6.324778 -20.124275 5.404889 -0.135310 -2.545564 0.567970 -31.323333 -15.168172 -78.761964 0.115644 -46.171399 -2.680231 0.000000 0.000000 0.000000 3.955760 2.007196 -0.745410 10.677540 24.853677 -18.216417 -5.491420 1.230873 -0.460995 -45.122166 6.023069 84.059077 -2.569911 59.211156 8.626027 0.000000 0.000000 0.000000 
0.391855 86.058113 -2.629265 0.000000 0.000000 0.000000 6.675682 -21.998870 1.896798 -37.552872 4.400822 14.414453 34.740955 7.506249 0.916051 -3.632104 0.559105 -9.466307 2.046284 -1.597966 -1.144180 0.000000 0.000000 0.000000 7.355778 -22.598026 2.425678 -13.581747 -9.699255 -16.385482 28.903014 0.878435 1.135920 -20.395372 -6.732911 13.762718 0.733694 1.594671 0.587890 0.000000 0.000000 0.000000 6.797782 -19.456241 1.733671 24.917596 4.736495 -0.241521 2.631810 2.159150 -1.412738 0.554878 0.656226 0.545865 0.000000 0.000000 0.000000 3.766810 1.827131 -0.801364 -14.104567 6.327121 -0.805484 -11.942121 15.540234 -5.701620 0.000000 0.000000 0.000000 3.282324 2.220953 -0.993840 6.036991 -19.877466 3.971173 -0.082944 -2.260846 0.455127 -30.415222 -17.462562 -75.839326 0.391945 -46.859817 -2.626097 0.000000 0.000000 0.000000 4.013785 2.036845 -0.772675 10.115736 24.569063 -17.499498 -5.420074 1.109556 -0.171745 -46.113558 9.608215 82.941384 -2.783844 57.917559 8.626631 0.000000 0.000000 0.000000 
